<mxfile host="app.diagrams.net" agent="Mozilla/5.0 (Windows NT 10.0; Win64; x64) AppleWebKit/537.36 (KHTML, like Gecko) Chrome/129.0.0.0 Safari/537.36" version="24.7.14">
  <diagram name="Page-1" id="xOCNUgC0vWXnYEcjHeTy">
    <mxGraphModel dx="893" dy="483" grid="1" gridSize="10" guides="1" tooltips="1" connect="1" arrows="1" fold="1" page="1" pageScale="1" pageWidth="827" pageHeight="1169" background="none" math="0" shadow="0">
      <root>
        <mxCell id="0" />
        <mxCell id="1" parent="0" />
        <mxCell id="rY3yKDdP1LJisUuGcd18-8" style="edgeStyle=orthogonalEdgeStyle;rounded=0;orthogonalLoop=1;jettySize=auto;html=1;entryX=0;entryY=0.5;entryDx=0;entryDy=0;" edge="1" parent="1" source="rY3yKDdP1LJisUuGcd18-1" target="rY3yKDdP1LJisUuGcd18-6">
          <mxGeometry relative="1" as="geometry" />
        </mxCell>
        <mxCell id="rY3yKDdP1LJisUuGcd18-1" value="Frontend App" style="rounded=0;whiteSpace=wrap;html=1;" vertex="1" parent="1">
          <mxGeometry x="240" y="170" width="120" height="60" as="geometry" />
        </mxCell>
        <mxCell id="rY3yKDdP1LJisUuGcd18-5" style="edgeStyle=orthogonalEdgeStyle;rounded=0;orthogonalLoop=1;jettySize=auto;html=1;" edge="1" parent="1" source="rY3yKDdP1LJisUuGcd18-2" target="rY3yKDdP1LJisUuGcd18-1">
          <mxGeometry relative="1" as="geometry" />
        </mxCell>
        <mxCell id="rY3yKDdP1LJisUuGcd18-2" value="User" style="shape=umlActor;verticalLabelPosition=bottom;verticalAlign=top;html=1;outlineConnect=0;" vertex="1" parent="1">
          <mxGeometry x="150" y="170" width="30" height="60" as="geometry" />
        </mxCell>
        <mxCell id="rY3yKDdP1LJisUuGcd18-10" style="edgeStyle=orthogonalEdgeStyle;rounded=0;orthogonalLoop=1;jettySize=auto;html=1;entryX=1;entryY=0.5;entryDx=0;entryDy=0;" edge="1" parent="1" source="rY3yKDdP1LJisUuGcd18-6" target="rY3yKDdP1LJisUuGcd18-1">
          <mxGeometry relative="1" as="geometry" />
        </mxCell>
        <mxCell id="rY3yKDdP1LJisUuGcd18-17" style="edgeStyle=orthogonalEdgeStyle;rounded=0;orthogonalLoop=1;jettySize=auto;html=1;entryX=0.5;entryY=0;entryDx=0;entryDy=0;" edge="1" parent="1">
          <mxGeometry relative="1" as="geometry">
            <mxPoint x="530.0285714285715" y="230" as="sourcePoint" />
            <mxPoint x="530" y="350" as="targetPoint" />
            <Array as="points">
              <mxPoint x="530" y="270" />
              <mxPoint x="530" y="270" />
            </Array>
          </mxGeometry>
        </mxCell>
        <mxCell id="rY3yKDdP1LJisUuGcd18-6" value="Patients Service" style="rounded=0;whiteSpace=wrap;html=1;" vertex="1" parent="1">
          <mxGeometry x="480" y="170" width="120" height="60" as="geometry" />
        </mxCell>
        <mxCell id="rY3yKDdP1LJisUuGcd18-20" style="edgeStyle=orthogonalEdgeStyle;rounded=0;orthogonalLoop=1;jettySize=auto;html=1;entryX=0.5;entryY=0;entryDx=0;entryDy=0;" edge="1" parent="1">
          <mxGeometry relative="1" as="geometry">
            <mxPoint x="790" y="230" as="sourcePoint" />
            <mxPoint x="790" y="350" as="targetPoint" />
          </mxGeometry>
        </mxCell>
        <mxCell id="rY3yKDdP1LJisUuGcd18-7" value="Medical Data Service" style="rounded=0;whiteSpace=wrap;html=1;" vertex="1" parent="1">
          <mxGeometry x="720" y="170" width="120" height="60" as="geometry" />
        </mxCell>
        <mxCell id="rY3yKDdP1LJisUuGcd18-9" value="&lt;font style=&quot;font-size: 22px;&quot;&gt;HTTP&lt;/font&gt;" style="text;html=1;align=center;verticalAlign=middle;resizable=0;points=[];autosize=1;strokeColor=none;fillColor=none;" vertex="1" parent="1">
          <mxGeometry x="385" y="155" width="80" height="40" as="geometry" />
        </mxCell>
        <mxCell id="rY3yKDdP1LJisUuGcd18-13" value="" style="shape=cylinder3;whiteSpace=wrap;html=1;boundedLbl=1;backgroundOutline=1;size=15;rotation=90;" vertex="1" parent="1">
          <mxGeometry x="630" y="220" width="60" height="140" as="geometry" />
        </mxCell>
        <mxCell id="rY3yKDdP1LJisUuGcd18-14" value="RabbitMQ" style="text;html=1;align=center;verticalAlign=middle;resizable=0;points=[];autosize=1;strokeColor=none;fillColor=none;" vertex="1" parent="1">
          <mxGeometry x="610" y="275" width="80" height="30" as="geometry" />
        </mxCell>
        <mxCell id="rY3yKDdP1LJisUuGcd18-15" value="patients db" style="shape=datastore;whiteSpace=wrap;html=1;" vertex="1" parent="1">
          <mxGeometry x="500" y="350" width="60" height="60" as="geometry" />
        </mxCell>
        <mxCell id="rY3yKDdP1LJisUuGcd18-16" value="medical data db" style="shape=datastore;whiteSpace=wrap;html=1;" vertex="1" parent="1">
          <mxGeometry x="760" y="350" width="60" height="60" as="geometry" />
        </mxCell>
        <mxCell id="rY3yKDdP1LJisUuGcd18-19" style="edgeStyle=orthogonalEdgeStyle;rounded=0;orthogonalLoop=1;jettySize=auto;html=1;entryX=0.5;entryY=0;entryDx=0;entryDy=0;entryPerimeter=0;" edge="1" parent="1" source="rY3yKDdP1LJisUuGcd18-7" target="rY3yKDdP1LJisUuGcd18-13">
          <mxGeometry relative="1" as="geometry" />
        </mxCell>
        <mxCell id="rY3yKDdP1LJisUuGcd18-21" style="edgeStyle=orthogonalEdgeStyle;rounded=0;orthogonalLoop=1;jettySize=auto;html=1;entryX=0.5;entryY=1;entryDx=0;entryDy=0;entryPerimeter=0;" edge="1" parent="1" source="rY3yKDdP1LJisUuGcd18-6" target="rY3yKDdP1LJisUuGcd18-13">
          <mxGeometry relative="1" as="geometry" />
        </mxCell>
      </root>
    </mxGraphModel>
  </diagram>
</mxfile>
